<svg xmlns="http://www.w3.org/2000/svg" viewBox="-7707298 -3213239 10373655 12703865">
<path fill-rule="evenodd" fill="#66cc99" stroke="#555555" stroke-width="2.0" opacity="0.6" d="M 0.0,0.0 L 0.0,58569.0 L -374842.0,58569.0 L -374842.0,166002.0 L 38497.0,166002.0 L 38497.0,329206.0 L 65427.0,329206.0 L 65427.0,365015.0 L 13303.0,365015.0 L 13303.0,590842.0 L 65427.0,590842.0 L 65427.0,805700.0 L 38497.0,805700.0 L 38497.0,922812.0 L -374842.0,922812.0 L -374842.0,927929.0 L -651077.0,927929.0 L -651077.0,1144271.0 L -760251.0,1144271.0 L -760251.0,1418261.0 L -1021909.0,1418261.0 L -1021909.0,1527514.0 L -1375212.0,1527514.0 L -1375212.0,1691763.0 L -1706947.0,1691763.0 L -1706947.0,1756785.0 L -1816077.0,1756785.0 L -1816077.0,2140580.0 L -2120739.0,2140580.0 L -2120739.0,2583698.0 L -2144638.0,2583698.0 L -2144638.0,2716242.0 L -2364415.0,2716242.0 L -2364415.0,2948236.0 L -2485229.0,2948236.0 L -2485229.0,2716242.0 L -2634646.0,2716242.0 L -2634646.0,2530881.0 L -2846756.0,2530881.0 L -2846756.0,2194126.0 L -2651078.0,2194126.0 L -2651078.0,1944010.0 L -2846756.0,1944010.0 L -2846756.0,1929907.0 L -2929800.0,1929907.0 L -2929800.0,1618640.0 L -2846756.0,1618640.0 L -2846756.0,1379375.0 L -3107614.0,1379375.0 L -3107614.0,1279353.0 L -3198062.0,1279353.0 L -3198062.0,1063889.0 L -3276002.0,1063889.0 L -3276002.0,866623.0 L -3663989.0,866623.0 L -3663989.0,773148.0 L -3896870.0,773148.0 L -3896870.0,722117.0 L -3931926.0,722117.0 L -3931926.0,485253.0 L -3998425.0,485253.0 L -3998425.0,450249.0 L -4312360.0,450249.0 L -4312360.0,408050.0 L -4403706.0,408050.0 L -4403706.0,85910.0 L -4660992.0,85910.0 L -4660992.0,0.0 L -4715730.0,0.0 L -4715730.0,-178138.0 L -5030261.0,-178138.0 L -5030261.0,-289171.0 L -5458581.0,-289171.0 L -5458581.0,-25584.0 L -5666460.0,-25584.0 L -5666460.0,-289171.0 L -5986909.0,-289171.0 L -5986909.0,-539613.0 L -6197065.0,-539613.0 L -6197065.0,-667963.0 L -5812899.0,-667963.0 L -5812899.0,-918685.0 L -6197065.0,-918685.0 L -6197065.0,-1039109.0 L -6233576.0,-1039109.0 L -6233576.0,-1124448.0 L -6197065.0,-1124448.0 L -6197065.0,-1542842.0 L -6411823.0,-1542842.0 L -6411823.0,-1685057.0 L -6326798.0,-1685057.0 L -6326798.0,-1545382.0 L -6092111.0,-1545382.0 L -6092111.0,-1227984.0 L -5950682.0,-1227984.0 L -5950682.0,-1050123.0 L -5751361.0,-1050123.0 L -5751361.0,-763487.0 L -5596862.0,-763487.0 L -5596862.0,-422089.0 L -5299248.0,-422089.0 L -5299248.0,-584195.0 L -5153935.0,-584195.0 L -5153935.0,-792122.0 L -5327348.0,-792122.0 L -5327348.0,-820830.0 L -5416307.0,-820830.0 L -5416307.0,-792122.0 L -5644304.0,-792122.0 L -5644304.0,-907534.0 L -5497184.0,-907534.0 L -5497184.0,-1220376.0 L -5339606.0,-1220376.0 L -5339606.0,-907534.0 L -5153935.0,-907534.0 L -5153935.0,-1090694.0 L -4923376.0,-1090694.0 L -4923376.0,-1286488.0 L -4784491.0,-1286488.0 L -4784491.0,-1376227.0 L -4521137.0,-1376227.0 L -4521137.0,-1286488.0 L -4421164.0,-1286488.0 L -4421164.0,-1581176.0 L -4127753.0,-1581176.0 L -4127753.0,-1639493.0 L -4271925.0,-1639493.0 L -4271925.0,-1828743.0 L -4224096.0,-1828743.0 L -4224096.0,-2201319.0 L -4271925.0,-2201319.0 L -4271925.0,-2339489.0 L -4577439.0,-2339489.0 L -4577439.0,-2367564.0 L -5003062.0,-2367564.0 L -5003062.0,-2362975.0 L -4722079.0,-2362975.0 L -4722079.0,-1982979.0 L -5003062.0,-1982979.0 L -5003062.0,-1639493.0 L -5299248.0,-1639493.0 L -5299248.0,-1685057.0 L -5030261.0,-1685057.0 L -5030261.0,-1855334.0 L -5231045.0,-1855334.0 L -5231045.0,-1892021.0 L -5424775.0,-1892021.0 L -5424775.0,-2033296.0 L -5634414.0,-2033296.0 L -5634414.0,-2277218.0 L -5642053.0,-2277218.0 L -5642053.0,-2395512.0 L -5663548.0,-2395512.0 L -5663548.0,-2467617.0 L -5835437.0,-2467617.0 L -5835437.0,-2766309.0 L -6057396.0,-2766309.0 L -6057396.0,-3094678.0 L -6314373.0,-3094678.0 L -6314373.0,-3211239.0 L -6477219.0,-3211239.0 L -6477219.0,-3110971.0 L -6680264.0,-3110971.0 L -6680264.0,-3001717.0 L -6934379.0,-3001717.0 L -6934379.0,-2891650.0 L -6850484.0,-2891650.0 L -6850484.0,-2542138.0 L -6477219.0,-2542138.0 L -6477219.0,-2538768.0 L -6546617.0,-2538768.0 L -6546617.0,-2378222.0 L -6490957.0,-2378222.0 L -6490957.0,-2081595.0 L -6546617.0,-2081595.0 L -6546617.0,-2034798.0 L -6477219.0,-2034798.0 L -6477219.0,-1855334.0 L -6531225.0,-1855334.0 L -6531225.0,-1832549.0 L -6660881.0,-1832549.0 L -6660881.0,-1382405.0 L -6531225.0,-1382405.0 L -6531225.0,-1358270.0 L -6713856.0,-1358270.0 L -6713856.0,-1139663.0 L -6770653.0,-1139663.0 L -6770653.0,-868310.0 L -6895990.0,-868310.0 L -6895990.0,-1000253.0 L -7295316.0,-1000253.0 L -7295316.0,-1222379.0 L -7397217.0,-1222379.0 L -7397217.0,-868310.0 L -7438669.0,-868310.0 L -7438669.0,-1139663.0 L -7489666.0,-1139663.0 L -7489666.0,-1020561.0 L -7705298.0,-1020561.0 L -7705298.0,-796204.0 L -7376815.0,-796204.0 L -7376815.0,-534870.0 L -7305248.0,-534870.0 L -7305248.0,-814432.0 L -6958352.0,-814432.0 L -6958352.0,-534870.0 L -6713856.0,-534870.0 L -6713856.0,-251875.0 L -6531225.0,-251875.0 L -6531225.0,-178138.0 L -6602163.0,-178138.0 L -6602163.0,0.0 L -6824269.0,0.0 L -6824269.0,215402.0 L -6602887.0,215402.0 L -6602887.0,285895.0 L -6487589.0,285895.0 L -6487589.0,372726.0 L -6658347.0,372726.0 L -6658347.0,814309.0 L -6487589.0,814309.0 L -6487589.0,816640.0 L -6178850.0,816640.0 L -6178850.0,969592.0 L -5961694.0,969592.0 L -5961694.0,882548.0 L -5766569.0,882548.0 L -5766569.0,854707.0 L -6105071.0,854707.0 L -6105071.0,705052.0 L -6366159.0,705052.0 L -6366159.0,565818.0 L -6105071.0,565818.0 L -6105071.0,319774.0 L -6124918.0,319774.0 L -6124918.0,191525.0 L -5766569.0,191525.0 L -5766569.0,150701.0 L -5636689.0,150701.0 L -5636689.0,252612.0 L -5405205.0,252612.0 L -5405205.0,313182.0 L -5811902.0,313182.0 L -5811902.0,617282.0 L -5405205.0,617282.0 L -5405205.0,770543.0 L -5225677.0,770543.0 L -5225677.0,969592.0 L -5134722.0,969592.0 L -5134722.0,1289493.0 L -5328934.0,1289493.0 L -5328934.0,1071723.0 L -5635668.0,1071723.0 L -5635668.0,1289493.0 L -5665189.0,1289493.0 L -5665189.0,1626860.0 L -5768257.0,1626860.0 L -5768257.0,1868076.0 L -5969456.0,1868076.0 L -5969456.0,1837338.0 L -6067828.0,1837338.0 L -6067828.0,1820190.0 L -5960253.0,1820190.0 L -5960253.0,1662873.0 L -5863860.0,1662873.0 L -5863860.0,1355578.0 L -5960253.0,1355578.0 L -5960253.0,1303275.0 L -6067828.0,1303275.0 L -6067828.0,1236615.0 L -6289644.0,1236615.0 L -6289644.0,1369223.0 L -6742913.0,1369223.0 L -6742913.0,1548713.0 L -6767496.0,1548713.0 L -6767496.0,1660651.0 L -6605329.0,1660651.0 L -6605329.0,1474437.0 L -6314652.0,1474437.0 L -6314652.0,1660651.0 L -6289644.0,1660651.0 L -6289644.0,1868076.0 L -6457308.0,1868076.0 L -6457308.0,1935206.0 L -6543924.0,1935206.0 L -6543924.0,2292057.0 L -6589391.0,2292057.0 L -6589391.0,2350679.0 L -6262750.0,2350679.0 L -6262750.0,2364918.0 L -5965968.0,2364918.0 L -5965968.0,1959226.0 L -5923876.0,1959226.0 L -5923876.0,1912173.0 L -5546312.0,1912173.0 L -5546312.0,2001314.0 L -5342672.0,2001314.0 L -5342672.0,2364918.0 L -5157427.0,2364918.0 L -5157427.0,2350679.0 L -5134722.0,2350679.0 L -5134722.0,2554679.0 L -5016647.0,2554679.0 L -5016647.0,2884533.0 L -4758954.0,2884533.0 L -4758954.0,2554679.0 L -4605545.0,2554679.0 L -4605545.0,2257084.0 L -4348144.0,2257084.0 L -4348144.0,1858693.0 L -4021503.0,1858693.0 L -4021503.0,1490276.0 L -4348144.0,1490276.0 L -4348144.0,1265863.0 L -4320048.0,1265863.0 L -4320048.0,969592.0 L -4137705.0,969592.0 L -4137705.0,1088047.0 L -3837358.0,1088047.0 L -3837358.0,1202616.0 L -3441482.0,1202616.0 L -3441482.0,1088047.0 L -3370571.0,1088047.0 L -3370571.0,1263157.0 L -3314535.0,1263157.0 L -3314535.0,1604692.0 L -3310672.0,1604692.0 L -3310672.0,1941596.0 L -3488060.0,1941596.0 L -3488060.0,2063360.0 L -3310672.0,2063360.0 L -3310672.0,2322135.0 L -3676633.0,2322135.0 L -3676633.0,2503165.0 L -3916767.0,2503165.0 L -3916767.0,2728352.0 L -4215497.0,2728352.0 L -4215497.0,2965437.0 L -4170530.0,2965437.0 L -4170530.0,3122492.0 L -3923138.0,3122492.0 L -3923138.0,3247670.0 L -3676633.0,3247670.0 L -3676633.0,3512803.0 L -3613900.0,3512803.0 L -3613900.0,3912240.0 L -3293984.0,3912240.0 L -3293984.0,4194376.0 L -3381244.0,4194376.0 L -3381244.0,4389832.0 L -3227694.0,4389832.0 L -3227694.0,4556023.0 L -3381244.0,4556023.0 L -3381244.0,4678014.0 L -3676633.0,4678014.0 L -3676633.0,4765824.0 L -3310672.0,4765824.0 L -3310672.0,4909042.0 L -3636926.0,4909042.0 L -3636926.0,5034909.0 L -3312008.0,5034909.0 L -3312008.0,5287114.0 L -3636926.0,5287114.0 L -3636926.0,5439794.0 L -3768836.0,5439794.0 L -3768836.0,5750115.0 L -4075166.0,5750115.0 L -4075166.0,5810407.0 L -4220721.0,5810407.0 L -4220721.0,6177059.0 L -4465159.0,6177059.0 L -4465159.0,6220492.0 L -4075166.0,6220492.0 L -4075166.0,6328871.0 L -4293089.0,6328871.0 L -4293089.0,6646200.0 L -4356775.0,6646200.0 L -4356775.0,6707666.0 L -4626495.0,6707666.0 L -4626495.0,7061913.0 L -4771326.0,7061913.0 L -4771326.0,7312575.0 L -4994314.0,7312575.0 L -4994314.0,7357175.0 L -5231641.0,7357175.0 L -5231641.0,7726764.0 L -5489560.0,7726764.0 L -5489560.0,7855965.0 L -5534404.0,7855965.0 L -5534404.0,7638141.0 L -5840659.0,7638141.0 L -5840659.0,7312575.0 L -6178850.0,7312575.0 L -6178850.0,7697546.0 L -6517385.0,7697546.0 L -6517385.0,7831095.0 L -6824269.0,7831095.0 L -6824269.0,7899984.0 L -6755925.0,7899984.0 L -6755925.0,8188247.0 L -6489843.0,8188247.0 L -6489843.0,7899984.0 L -6255523.0,7899984.0 L -6255523.0,8033127.0 L -5866310.0,8033127.0 L -5866310.0,8251300.0 L -6162129.0,8251300.0 L -6162129.0,8273712.0 L -6621116.0,8273712.0 L -6621116.0,8531263.0 L -6399215.0,8531263.0 L -6399215.0,8905193.0 L -6158357.0,8905193.0 L -6158357.0,8531263.0 L -5895121.0,8531263.0 L -5895121.0,8684987.0 L -5866310.0,8684987.0 L -5866310.0,8818180.0 L -5751155.0,8818180.0 L -5751155.0,8742997.0 L -5530586.0,8742997.0 L -5530586.0,8526624.0 L -5318679.0,8526624.0 L -5318679.0,8613826.0 L -5023884.0,8613826.0 L -5023884.0,8526624.0 L -5004728.0,8526624.0 L -5004728.0,8357870.0 L -5132139.0,8357870.0 L -5132139.0,8202621.0 L -5280516.0,8202621.0 L -5280516.0,8357870.0 L -5530586.0,8357870.0 L -5530586.0,8138717.0 L -5415381.0,8138717.0 L -5415381.0,7899984.0 L -5192788.0,7899984.0 L -5192788.0,7951196.0 L -5083022.0,7951196.0 L -5083022.0,8298792.0 L -4865773.0,8298792.0 L -4865773.0,8436385.0 L -4562949.0,8436385.0 L -4562949.0,8676879.0 L -4346173.0,8676879.0 L -4346173.0,9130588.0 L -4280040.0,9130588.0 L -4280040.0,9139006.0 L -4026711.0,9139006.0 L -4026711.0,9490626.0 L -3837220.0,9490626.0 L -3837220.0,9338012.0 L -3490404.0,9338012.0 L -3490404.0,8979994.0 L -3312258.0,8979994.0 L -3312258.0,8531655.0 L -3067561.0,8531655.0 L -3067561.0,8497526.0 L -2969228.0,8497526.0 L -2969228.0,8197236.0 L -2671091.0,8197236.0 L -2671091.0,8015439.0 L -3067561.0,8015439.0 L -3067561.0,7776128.0 L -3157846.0,7776128.0 L -3157846.0,7537219.0 L -3257395.0,7537219.0 L -3257395.0,7384357.0 L -3157846.0,7384357.0 L -3157846.0,7068958.0 L -3067561.0,7068958.0 L -3067561.0,6788970.0 L -2728520.0,6788970.0 L -2728520.0,6578107.0 L -2561295.0,6578107.0 L -2561295.0,6702644.0 L -2437282.0,6702644.0 L -2437282.0,6973556.0 L -2024946.0,6973556.0 L -2024946.0,7063793.0 L -2004705.0,7063793.0 L -2004705.0,7143878.0 L -1852601.0,7143878.0 L -1852601.0,6902108.0 L -1605929.0,6902108.0 L -1605929.0,6702644.0 L -1321627.0,6702644.0 L -1321627.0,6933488.0 L -1233781.0,6933488.0 L -1233781.0,6611518.0 L -805330.0,6611518.0 L -805330.0,6933488.0 L -637290.0,6933488.0 L -637290.0,6961615.0 L -715660.0,6961615.0 L -715660.0,7389381.0 L -978969.0,7389381.0 L -978969.0,7602891.0 L -846660.0,7602891.0 L -846660.0,7635151.0 L -978969.0,7635151.0 L -978969.0,7874698.0 L -1207585.0,7874698.0 L -1207585.0,8002658.0 L -1328670.0,8002658.0 L -1328670.0,7909722.0 L -1400709.0,7909722.0 L -1400709.0,7790563.0 L -1573367.0,7790563.0 L -1573367.0,7612029.0 L -1400709.0,7612029.0 L -1400709.0,7414659.0 L -1677973.0,7414659.0 L -1677973.0,7456467.0 L -1896261.0,7456467.0 L -1896261.0,7844285.0 L -1677973.0,7844285.0 L -1677973.0,7909722.0 L -1884779.0,7909722.0 L -1884779.0,8002658.0 L -1908815.0,8002658.0 L -1908815.0,8232450.0 L -2171997.0,8232450.0 L -2171997.0,8125927.0 L -2142620.0,8125927.0 L -2142620.0,7748523.0 L -2171997.0,7748523.0 L -2171997.0,7593690.0 L -2393843.0,7593690.0 L -2393843.0,7668104.0 L -2588801.0,7668104.0 L -2588801.0,7974350.0 L -2393843.0,7974350.0 L -2393843.0,8232450.0 L -2561295.0,8232450.0 L -2561295.0,8531655.0 L -2378305.0,8531655.0 L -2378305.0,8722692.0 L -2126158.0,8722692.0 L -2126158.0,9008635.0 L -1987469.0,9008635.0 L -1987469.0,8799868.0 L -2031855.0,8799868.0 L -2031855.0,8742485.0 L -1987469.0,8742485.0 L -1987469.0,8531655.0 L -1910651.0,8531655.0 L -1910651.0,8630054.0 L -1849763.0,8630054.0 L -1849763.0,9031157.0 L -1770568.0,9031157.0 L -1770568.0,9097949.0 L -1523081.0,9097949.0 L -1523081.0,9064006.0 L -1433525.0,9064006.0 L -1433525.0,8636596.0 L -1191620.0,8636596.0 L -1191620.0,8576112.0 L -967214.0,8576112.0 L -967214.0,9031099.0 L -759971.0,9031099.0 L -759971.0,9097949.0 L -559180.0,9097949.0 L -559180.0,8921453.0 L -715078.0,8921453.0 L -715078.0,8637403.0 L -559180.0,8637403.0 L -559180.0,8531655.0 L -461227.0,8531655.0 L -461227.0,8298490.0 L -354328.0,8298490.0 L -354328.0,8010524.0 L -42079.0,8010524.0 L -42079.0,7899568.0 L -461227.0,7899568.0 L -461227.0,7774675.0 L -288690.0,7774675.0 L -288690.0,7600669.0 L -129933.0,7600669.0 L -129933.0,7449001.0 L 31284.0,7449001.0 L 31284.0,7367955.0 L -129933.0,7367955.0 L -129933.0,7139785.0 L 115448.0,7139785.0 L 115448.0,7156195.0 L 286326.0,7156195.0 L 286326.0,7138784.0 L 363706.0,7138784.0 L 363706.0,7368342.0 L 596815.0,7368342.0 L 596815.0,7535258.0 L 773981.0,7535258.0 L 773981.0,7138784.0 L 796814.0,7138784.0 L 796814.0,7156195.0 L 977458.0,7156195.0 L 977458.0,7139785.0 L 1031003.0,7139785.0 L 1031003.0,7067007.0 L 1084737.0,7067007.0 L 1084737.0,6899527.0 L 1292969.0,6899527.0 L 1292969.0,6594885.0 L 1496349.0,6594885.0 L 1496349.0,6451651.0 L 1084737.0,6451651.0 L 1084737.0,6282445.0 L 1186967.0,6282445.0 L 1186967.0,6055586.0 L 864487.0,6055586.0 L 864487.0,5743613.0 L 1186967.0,5743613.0 L 1186967.0,5366565.0 L 1084737.0,5366565.0 L 1084737.0,5273822.0 L 1142376.0,5273822.0 L 1142376.0,5273629.0 L 1430541.0,5273629.0 L 1430541.0,5224658.0 L 1365028.0,5224658.0 L 1365028.0,4982286.0 L 1430541.0,4982286.0 L 1430541.0,4784839.0 L 1142376.0,4784839.0 L 1142376.0,4782250.0 L 1401940.0,4782250.0 L 1401940.0,4709684.0 L 1532700.0,4709684.0 L 1532700.0,4689876.0 L 1747407.0,4689876.0 L 1747407.0,4240707.0 L 1923467.0,4240707.0 L 1923467.0,3954866.0 L 2034273.0,3954866.0 L 2034273.0,3721043.0 L 1923467.0,3721043.0 L 1923467.0,3574628.0 L 1951488.0,3574628.0 L 1951488.0,3152459.0 L 2191385.0,3152459.0 L 2191385.0,3057750.0 L 2552579.0,3057750.0 L 2552579.0,2727944.0 L 2666357.0,2727944.0 L 2666357.0,2438370.0 L 2424122.0,2438370.0 L 2424122.0,2084780.0 L 2242371.0,2084780.0 L 2242371.0,1904226.0 L 2389852.0,1904226.0 L 2389852.0,1496572.0 L 2666357.0,1496572.0 L 2666357.0,1422347.0 L 2631535.0,1422347.0 L 2631535.0,1245470.0 L 2418320.0,1245470.0 L 2418320.0,1045337.0 L 2210257.0,1045337.0 L 2210257.0,762309.0 L 2091596.0,762309.0 L 2091596.0,438244.0 L 1883983.0,438244.0 L 1883983.0,762309.0 L 1606109.0,762309.0 L 1606109.0,628816.0 L 1298377.0,628816.0 L 1298377.0,1045337.0 L 1126668.0,1045337.0 L 1126668.0,1033895.0 L 897254.0,1033895.0 L 897254.0,623272.0 L 601241.0,623272.0 L 601241.0,396338.0 L 528469.0,396338.0 L 528469.0,99412.0 L 77597.0,99412.0 L 77597.0,0.0 L 0.0,0.0 z" />
</svg>